<svg xmlns="http://www.w3.org/2000/svg" fill="none" viewBox="0 0 1044 680" height="680" width="1044">
<path fill="#893CF7" d="M35.4305 643.48C33.8405 643.48 32.6205 643.05 31.7605 642.2C30.9005 641.35 30.4805 640.13 30.4805 638.53V520.72C30.4805 519.13 30.8205 517.88 31.5005 516.97C32.1805 516.06 33.3205 515.38 34.9105 514.92C36.2705 514.47 38.4305 514.04 41.3905 513.64C44.3405 513.24 47.7205 512.87 51.5305 512.53C55.3405 512.19 59.2905 511.91 63.3805 511.68C67.4705 511.45 71.4505 511.34 75.3205 511.34C86.3405 511.34 95.4905 512.7 102.77 515.43C110.04 518.16 115.5 522.02 119.14 527.02C122.78 532.02 124.6 538.16 124.6 545.43C124.6 550.09 123.77 554.38 122.13 558.3C120.48 562.22 118.01 565.66 114.71 568.62C111.41 571.58 107.38 573.96 102.6 575.78L101.92 571.69C111.92 573.51 119.54 577.43 124.77 583.45C130 589.48 132.61 597.15 132.61 606.47C132.61 613.63 130.96 620 127.67 625.57C124.37 631.14 119.8 635.52 113.94 638.7C108.08 641.88 101.24 643.47 93.3905 643.47H35.4205L35.4305 643.48ZM51.6305 627.45H89.1405C95.9605 627.45 101.39 625.46 105.42 621.48C109.45 617.5 111.47 612.1 111.47 605.28C111.47 598.46 109.51 592.89 105.59 588.91C101.67 584.93 96.2405 582.94 89.3105 582.94H44.1305V567.25H83.8605C90.0005 567.25 94.8005 565.49 98.2705 561.96C101.74 558.44 103.47 553.49 103.47 547.13C103.47 540.31 101.19 535.34 96.6505 532.21C92.1005 529.09 85.0005 527.52 75.3405 527.52C72.6105 527.52 69.7105 527.61 66.6405 527.78C63.5705 527.95 60.7005 528.18 58.0305 528.46C55.3605 528.75 53.2305 529.06 51.6405 529.4V627.44L51.6305 627.45Z"></path>
<path fill="#893CF7" d="M196.211 679.28C190.751 679.28 185.321 678.85 179.931 678C174.531 677.15 169.611 675.95 165.181 674.42C160.751 672.89 157.171 671.21 154.441 669.39C153.301 668.48 152.561 667.6 152.221 666.75C151.881 665.9 152.051 664.56 152.731 662.74L155.291 656.43C155.971 654.84 156.851 653.87 157.931 653.53C159.011 653.19 160.341 653.36 161.941 654.04C167.621 656.88 172.911 659.01 177.801 660.43C182.691 661.85 188.261 662.56 194.511 662.56C205.081 662.56 213.211 659.89 218.891 654.55C224.571 649.21 227.411 640.8 227.411 629.32V542.71C227.411 541.12 227.841 539.9 228.691 539.04C229.541 538.18 230.761 537.76 232.361 537.76H243.611C245.091 537.76 246.251 538.19 247.111 539.04C247.971 539.89 248.391 541.12 248.391 542.71V628.64C248.391 639.21 246.341 648.27 242.251 655.83C238.161 663.39 232.221 669.18 224.431 673.22C216.641 677.25 207.241 679.27 196.211 679.27V679.28ZM190.241 640.58C184.331 640.58 178.991 639.7 174.211 637.94C169.441 636.18 165.401 633.56 162.101 630.1C158.801 626.63 156.301 622.4 154.601 617.4C152.901 612.4 152.041 606.66 152.041 600.18V542.72C152.041 541.13 152.471 539.91 153.321 539.05C154.171 538.19 155.391 537.77 156.991 537.77H168.241C169.721 537.77 170.881 538.2 171.741 539.05C172.601 539.9 173.021 541.13 173.021 542.72V596.43C173.021 602.23 173.901 607.06 175.661 610.92C177.421 614.79 180.011 617.63 183.421 619.45C186.831 621.27 190.981 622.18 195.871 622.18C200.191 622.18 204.451 621.39 208.661 619.79C212.861 618.2 216.731 615.98 220.251 613.14C223.771 610.3 226.501 607.06 228.431 603.42L228.771 616.38C224.791 624.34 219.531 630.36 213.001 634.45C206.461 638.54 198.881 640.59 190.241 640.59V640.58Z"></path>
<path fill="#893CF7" d="M317.209 645.34V504.76H421.339V528.55H345.549V559.76H416.059V583.39H345.549V621.72H424.029V645.34H317.199H317.209ZM445.839 543.49H470.769V557.46C479.589 546.65 490.149 541.23 502.389 541.23C508.939 541.23 514.629 542.5 519.339 545.19C524.179 547.94 528.179 552.05 531.159 557.46C535.729 552.05 540.569 547.94 545.699 545.19C550.819 542.49 556.369 541.23 562.219 541.23C569.759 541.23 576.029 542.79 581.299 545.79C586.439 548.78 590.269 553.33 592.849 559.19C594.679 563.46 595.549 570.56 595.549 580.26V645.34H568.619V587.24C568.619 577.12 567.769 570.56 565.919 567.58C563.349 563.73 559.659 561.88 554.389 561.88C550.699 561.88 547.119 563 543.699 565.29C540.429 567.58 537.999 571 536.589 575.42C535.159 579.81 534.319 586.79 534.319 596.5V645.34H507.389V589.53C507.389 579.7 506.969 573.28 505.959 570.44C505.089 567.44 503.529 565.45 501.549 564.04C499.559 562.6 496.859 561.89 493.279 561.89C489.139 561.89 485.439 563.01 482.169 565.15C478.759 567.45 476.469 570.73 475.059 574.83C473.499 579.12 472.779 586.12 472.779 595.9V645.34H445.849V543.49H445.839ZM711.079 573.7L684.729 578.4C683.709 573.13 681.729 569.15 678.599 566.44C675.469 563.73 671.329 562.45 666.349 562.45C659.509 562.45 654.249 564.73 650.239 569.43C646.249 573.99 644.259 581.85 644.259 592.64C644.259 604.75 646.249 613.3 650.239 618.14C654.369 623.14 659.779 625.7 666.629 625.7C671.759 625.7 675.879 624.28 679.159 621.29C682.439 618.43 684.729 613.45 686.149 606.33L712.499 610.89C709.639 623 704.379 632.11 696.539 638.4C688.999 644.51 678.449 647.64 665.359 647.64C650.529 647.64 638.579 642.95 629.719 633.54C620.899 624.14 616.489 611.16 616.489 594.51C616.489 577.86 620.899 564.75 629.859 555.34C638.689 545.93 650.659 541.24 665.919 541.24C678.299 541.24 688.139 543.94 695.249 549.21C702.679 554.61 707.939 562.75 711.069 573.71M798.539 645.34V630.13C794.849 635.53 789.849 639.8 783.859 642.93C777.899 646.07 771.479 647.62 764.779 647.62C758.079 647.62 751.809 646.07 746.399 643.21C740.989 640.08 736.979 635.95 734.579 630.52C732.149 625.1 730.869 617.54 730.869 607.87V543.48H757.799V590.35C757.799 604.62 758.359 613.43 759.359 616.55C760.359 619.84 762.079 622.41 764.789 624.26C767.349 626.25 770.769 627.11 774.759 627.11C779.329 627.11 783.449 625.84 787.159 623.42C790.709 620.84 793.279 617.7 794.569 614.02C795.839 610.16 796.559 601.06 796.559 586.51V543.48H823.469V645.33H798.549L798.539 645.34ZM877.169 645.34H850.239V543.49H875.309V558.02C879.599 551.19 883.439 546.64 886.839 544.5C890.279 542.37 894.109 541.22 898.519 541.22C904.669 541.22 910.499 542.92 916.189 546.34L907.799 569.86C903.369 566.85 899.089 565.43 895.259 565.43C891.429 565.43 888.279 566.43 885.579 568.55C882.999 570.55 881.019 574.4 879.439 579.8C878.029 585.23 877.169 596.63 877.169 613.84V645.32V645.34ZM986.719 613.01L1013.63 617.45C1010.07 627.27 1004.66 634.82 997.259 639.95C989.849 645.06 980.439 647.63 969.339 647.63C951.689 647.63 938.559 641.94 930.029 630.25C923.339 621.02 919.909 609.33 919.909 595.22C919.909 578.41 924.329 565.15 933.169 555.62C941.989 546.07 953.099 541.24 966.639 541.24C981.739 541.24 993.709 546.21 1002.54 556.17C1011.22 566.29 1015.35 581.54 1015.07 602.2H947.549C947.689 610.16 949.969 616.44 954.099 620.84C958.239 625.28 963.369 627.55 969.639 627.55C973.909 627.55 977.329 626.41 980.319 624.12C983.169 621.72 985.309 618 986.739 613.01M988.279 585.66C988.129 577.98 986.139 572.01 982.289 567.86C978.439 563.88 973.739 561.89 968.199 561.89C962.359 561.89 957.509 564.04 953.669 568.3C949.809 572.57 947.969 578.4 948.109 585.66H988.279Z" clip-rule="evenodd" fill-rule="evenodd"></path>
<path fill="#893CF7" d="M1043.64 264.62C1043.46 244.21 1042.15 223.93 1037.11 203.86C1015.85 119.37 919.38 109.54 871.65 149.68C857.62 161.48 848.19 176.52 837.64 191.89C837.64 187.42 837.53 182.94 837.66 178.47C839.06 126.96 841.04 8.91016 841.04 8.91016L836.81 9.72015C812.72 14.3402 787.99 14.4002 763.88 9.92017L760.3 9.25015C760.3 9.25015 763.22 292.25 760.24 428.01C760.03 437.39 760.44 437.68 760.44 437.68L843.13 437.55C843.13 437.55 842.92 436.67 842.79 425.44C842.17 372.28 842.15 319.1 842.63 265.94C842.85 242.05 847.36 218.81 859.14 197.51C871.62 174.93 892.05 163.19 915.49 166.23C939.25 169.31 949.4 186.59 956.17 207C961.4 222.79 961.79 239.15 961.93 255.48C962.41 312.74 953.8 343.94 934.86 427.25C932.76 436.49 932.67 437.64 932.67 437.64L1022.83 437.57C1022.83 437.57 1023.12 436.47 1024.62 426.57C1036.38 348.59 1044.15 318.6 1043.67 264.61L1043.64 264.62Z"></path>
<path fill="#893CF7" d="M272.84 232.06C272.45 188.31 250.23 152.95 206.4 137.71C153.63 119.35 101.47 122.49 52.6102 151.01C32.3802 162.81 18.1002 180.74 10.4902 203.51C8.46021 209.57 6.86021 214 6.86021 214C40.2702 225 102.86 242.01 102.86 242.01C102.86 242.01 96.4902 224.53 95.6002 222.69C86.1302 202.95 86.8802 183.64 99.9202 165.94C113.31 147.76 132.62 143.52 153.69 147.41C174.91 151.33 184.56 167.16 190.14 186.23C195.59 204.88 195.42 224.17 196.78 243.31C197.23 249.65 192.4 255.13 186.06 255.58C146.77 258.38 108.36 265.62 72.3702 282.42C46.6902 294.41 24.0202 310.16 10.1502 335.84C-10.1898 373.48 1.19021 417.21 36.0002 436.08C71.7302 455.44 127.54 448.38 158.25 421.12C180.36 401.49 193.67 376.6 203.97 345.74C215.43 372.94 225.37 396.59 235.34 420.23C239.37 429.79 242.96 438.83 242.96 438.83L275.19 438.97C275.19 438.97 273.45 297.47 272.86 232.04L272.84 232.06ZM195.86 280.77C192.59 321.65 185.45 361.19 154.36 391.59C144.26 401.47 131.54 405.79 117.38 405.04C96.3802 403.93 82.9402 386.85 83.2602 362.02C83.6902 329.9 101.1 308.61 127.83 293.86C146.66 283.47 167.25 278.26 188.63 276.05C192.64 275.64 196.33 274.87 195.85 280.76L195.86 280.77Z"></path>
<path fill="#893CF7" d="M500.16 136.26C488.12 123.37 465.33 125.16 449.91 132.35C422.71 145.03 409.45 183.48 400 209.79C396.63 205.12 354.41 132.54 354.41 132.54L329.59 132.75C329.59 132.75 331.8 239.89 331.84 285.7C331.87 332.73 330.89 379.78 329.69 426.8C329.43 437.02 331.9 437.63 331.9 437.63L413.05 437.72C413.05 437.72 411.66 334.02 411.82 287.39C411.9 263.7 412.14 239.9 417.96 216.67C419.17 211.85 420.54 207.45 422.13 203.35C430.27 182.43 452.42 176.49 464.01 183.95C477.9 192.89 480.99 229.66 480.99 229.66C480.99 229.66 541.07 180.03 500.17 136.25L500.16 136.26Z"></path>
<path fill="#893CF7" d="M702.849 373.33C702.849 373.33 703.619 387.11 693.199 401.21C684.659 412.77 665.609 421.12 653.209 411.24C642.939 403.07 641.509 384.97 640.379 372.92C637.299 339.86 637.079 163.88 639.719 162.34H726.119V135.66H599.829C599.029 134.98 618.799 130.63 634.939 111.69C655.549 87.5103 658.949 41.0903 658.949 41.0703C658.829 41.2003 644.179 52.5903 628.659 57.8103C613.749 62.8203 597.939 61.6703 597.939 61.6703C597.369 72.1003 610.329 137.39 542.369 137.39V160.53H553.289C556.939 160.53 559.899 163.47 559.889 167.12C559.749 242.87 559.159 337.09 560.049 369.9C560.699 393.88 568.319 416.36 589.359 430.61C616.369 448.91 646.459 449.31 676.619 440.4C696.409 434.55 714.729 419.64 722.609 400.23C726.699 390.16 727.359 376.37 727.359 376.37L702.849 373.31V373.33Z"></path>
<path fill="#893CF7" d="M990.599 30.6996C990.209 30.6996 989.899 30.5896 989.679 30.3696C989.459 30.1496 989.349 29.8396 989.349 29.4496V6.23962H980.219C979.389 6.23962 978.969 5.81962 978.969 4.98962V2.13965C978.969 1.30965 979.389 0.889648 980.219 0.889648H1004.8C1005.63 0.889648 1006.05 1.30965 1006.05 2.13965V4.98962C1006.05 5.81962 1005.63 6.23962 1004.8 6.23962H995.629V29.4496C995.629 30.2796 995.229 30.6996 994.419 30.6996H990.599Z"></path>
<path fill="#893CF7" d="M1011.98 30.6996C1011.56 30.6996 1011.24 30.5896 1011.02 30.3696C1010.8 30.1496 1010.69 29.8396 1010.69 29.4496V2.13965C1010.69 1.30965 1011.12 0.889648 1011.98 0.889648H1017.87C1018.57 0.889648 1019.05 1.19962 1019.31 1.82962L1028.28 21.7296H1026.25L1035.22 1.86963C1035.51 1.21963 1036.01 0.889648 1036.74 0.889648H1042.44C1042.83 0.889648 1043.14 0.989646 1043.36 1.19965C1043.58 1.40965 1043.69 1.71965 1043.69 2.13965V29.4496C1043.69 30.2796 1043.27 30.6996 1042.44 30.6996H1039.2C1038.78 30.6996 1038.46 30.5896 1038.22 30.3696C1037.99 30.1496 1037.87 29.8396 1037.87 29.4496V5.96964L1038.77 6.12964L1030.5 24.1096C1030.24 24.7596 1029.75 25.0896 1029.02 25.0896H1025.39C1024.69 25.0896 1024.19 24.7596 1023.91 24.1096L1015.56 5.77963L1016.5 5.85962V29.4596C1016.5 29.8796 1016.38 30.1896 1016.15 30.3996C1015.92 30.6096 1015.6 30.7096 1015.21 30.7096H1011.97L1011.98 30.6996Z"></path>
</svg>
