<svg width="201" height="232" viewBox="0 0 201 232" fill="none" xmlns="http://www.w3.org/2000/svg">
<g filter="url(#filter0_i_103_4)">
<path d="M124.62 86.9196C126.598 83.5873 131.684 84.7321 132.043 88.5904L133.494 104.184C133.654 105.91 134.908 107.335 136.598 107.716L151.877 111.155C155.657 112.006 156.14 117.197 152.582 118.731L138.2 124.929C136.608 125.615 135.639 127.248 135.8 128.973L137.251 144.567C137.61 148.425 132.822 150.489 130.263 147.578L119.924 135.815C118.78 134.514 116.928 134.097 115.336 134.783L100.954 140.981C97.3957 142.515 93.9536 138.599 95.9311 135.267L103.923 121.798C104.808 120.308 104.632 118.418 103.488 117.116L93.1481 105.353C90.5899 102.443 93.2505 97.9592 97.0309 98.8101L112.31 102.249C114 102.63 115.744 101.878 116.628 100.388L124.62 86.9196Z" fill="url(#paint0_linear_103_4)"/>
</g>
<g filter="url(#filter1_i_103_4)">
<path d="M181.07 58.4545C182.136 56.8366 184.649 57.5278 184.738 59.4632L184.805 60.935C184.845 61.8005 185.437 62.5421 186.273 62.7718L187.694 63.1624C189.562 63.6761 189.681 66.2802 187.868 66.9627L186.489 67.4816C185.678 67.7868 185.156 68.5795 185.195 69.445L185.263 70.9168C185.352 72.8522 182.912 73.7705 181.702 72.2568L180.783 71.1058C180.242 70.4289 179.327 70.1772 178.516 70.4824L177.137 71.0014C175.324 71.6838 173.696 69.6473 174.762 68.0293L175.573 66.799C176.049 66.0754 176.006 65.1272 175.465 64.4503L174.545 63.2993C173.336 61.7856 174.77 59.6087 176.638 60.1224L178.059 60.513C178.894 60.7428 179.783 60.4084 180.259 59.6849L181.07 58.4545Z" fill="url(#paint1_linear_103_4)"/>
</g>
<g filter="url(#filter2_i_103_4)">
<path d="M117.194 18.4342C119.354 15.2177 124.369 16.6454 124.511 20.5177L124.753 27.0926C124.817 28.8243 125.988 30.3181 127.655 30.7926L133.983 32.5943C137.71 33.6554 137.901 38.8656 134.263 40.1976L128.084 42.4595C126.457 43.0552 125.398 44.631 125.462 46.3627L125.704 52.9377C125.846 56.8099 120.951 58.6022 118.559 55.5532L114.499 50.3762C113.429 49.0127 111.604 48.4928 109.976 49.0885L103.798 51.3503C100.159 52.6824 96.9417 48.58 99.1025 45.3636L102.771 39.9022C103.738 38.4637 103.668 36.5666 102.599 35.203L98.5382 30.026C96.1469 26.977 99.0543 22.6493 102.781 23.7104L109.109 25.5121C110.776 25.9866 112.558 25.334 113.525 23.8956L117.194 18.4342Z" fill="url(#paint2_linear_103_4)"/>
</g>
<g filter="url(#filter3_ii_103_4)">
<path fill-rule="evenodd" clip-rule="evenodd" d="M197.188 182.011C198.262 180.299 196.315 178.342 194.506 179.244C180.303 186.323 164.306 190.301 147.388 190.301C88.6177 190.301 40.9751 142.295 40.9751 83.0761C40.9751 67.1258 44.4314 51.9889 50.6306 38.3844C51.4688 36.5448 49.4451 34.6702 47.773 35.8062C19.4211 55.0682 0.774811 87.7273 0.774811 124.775C0.774811 183.994 48.4174 232 107.187 232C145.072 232 178.332 212.052 197.188 182.011Z" fill="url(#paint3_linear_103_4)"/>
</g>
<defs>
<filter id="filter0_i_103_4" x="92.1364" y="59.9568" width="62.8631" height="88.9922" filterUnits="userSpaceOnUse" color-interpolation-filters="sRGB">
<feFlood flood-opacity="0" result="BackgroundImageFix"/>
<feBlend mode="normal" in="SourceGraphic" in2="BackgroundImageFix" result="shape"/>
<feColorMatrix in="SourceAlpha" type="matrix" values="0 0 0 0 0 0 0 0 0 0 0 0 0 0 0 0 0 0 127 0" result="hardAlpha"/>
<feOffset dy="-25"/>
<feGaussianBlur stdDeviation="50"/>
<feComposite in2="hardAlpha" operator="arithmetic" k2="-1" k3="1"/>
<feColorMatrix type="matrix" values="0 0 0 0 0.616667 0 0 0 0 0.616667 0 0 0 0 0.616667 0 0 0 0.08 0"/>
<feBlend mode="normal" in2="shape" result="effect1_innerShadow_103_4"/>
</filter>
<filter id="filter1_i_103_4" x="174.099" y="32.5518" width="15.0641" height="40.4613" filterUnits="userSpaceOnUse" color-interpolation-filters="sRGB">
<feFlood flood-opacity="0" result="BackgroundImageFix"/>
<feBlend mode="normal" in="SourceGraphic" in2="BackgroundImageFix" result="shape"/>
<feColorMatrix in="SourceAlpha" type="matrix" values="0 0 0 0 0 0 0 0 0 0 0 0 0 0 0 0 0 0 127 0" result="hardAlpha"/>
<feOffset dy="-25"/>
<feGaussianBlur stdDeviation="50"/>
<feComposite in2="hardAlpha" operator="arithmetic" k2="-1" k3="1"/>
<feColorMatrix type="matrix" values="0 0 0 0 0.616667 0 0 0 0 0.616667 0 0 0 0 0.616667 0 0 0 0.08 0"/>
<feBlend mode="normal" in2="shape" result="effect1_innerShadow_103_4"/>
</filter>
<filter id="filter2_i_103_4" x="97.6682" y="-8.34146" width="39.2194" height="65.4354" filterUnits="userSpaceOnUse" color-interpolation-filters="sRGB">
<feFlood flood-opacity="0" result="BackgroundImageFix"/>
<feBlend mode="normal" in="SourceGraphic" in2="BackgroundImageFix" result="shape"/>
<feColorMatrix in="SourceAlpha" type="matrix" values="0 0 0 0 0 0 0 0 0 0 0 0 0 0 0 0 0 0 127 0" result="hardAlpha"/>
<feOffset dy="-25"/>
<feGaussianBlur stdDeviation="50"/>
<feComposite in2="hardAlpha" operator="arithmetic" k2="-1" k3="1"/>
<feColorMatrix type="matrix" values="0 0 0 0 0.616667 0 0 0 0 0.616667 0 0 0 0 0.616667 0 0 0 0.08 0"/>
<feBlend mode="normal" in2="shape" result="effect1_innerShadow_103_4"/>
</filter>
<filter id="filter3_ii_103_4" x="-27.2252" y="-14.5394" width="224.72" height="274.539" filterUnits="userSpaceOnUse" color-interpolation-filters="sRGB">
<feFlood flood-opacity="0" result="BackgroundImageFix"/>
<feBlend mode="normal" in="SourceGraphic" in2="BackgroundImageFix" result="shape"/>
<feColorMatrix in="SourceAlpha" type="matrix" values="0 0 0 0 0 0 0 0 0 0 0 0 0 0 0 0 0 0 127 0" result="hardAlpha"/>
<feOffset dy="-100"/>
<feGaussianBlur stdDeviation="25"/>
<feComposite in2="hardAlpha" operator="arithmetic" k2="-1" k3="1"/>
<feColorMatrix type="matrix" values="0 0 0 0 0.56 0 0 0 0 0 0 0 0 0 1 0 0 0 0.35 0"/>
<feBlend mode="normal" in2="shape" result="effect1_innerShadow_103_4"/>
<feColorMatrix in="SourceAlpha" type="matrix" values="0 0 0 0 0 0 0 0 0 0 0 0 0 0 0 0 0 0 127 0" result="hardAlpha"/>
<feOffset dx="-28" dy="28"/>
<feGaussianBlur stdDeviation="20"/>
<feComposite in2="hardAlpha" operator="arithmetic" k2="-1" k3="1"/>
<feColorMatrix type="matrix" values="0 0 0 0 0.75 0 0 0 0 0.75 0 0 0 0 0.75 0 0 0 0.6 0"/>
<feBlend mode="normal" in2="effect1_innerShadow_103_4" result="effect2_innerShadow_103_4"/>
</filter>
<linearGradient id="paint0_linear_103_4" x1="111.323" y1="71.9255" x2="163.793" y2="195.79" gradientUnits="userSpaceOnUse">
<stop stop-color="white"/>
<stop offset="0.875" stop-color="#FF00FF"/>
</linearGradient>
<linearGradient id="paint1_linear_103_4" x1="178.764" y1="51.7492" x2="192.47" y2="88.8642" gradientUnits="userSpaceOnUse">
<stop stop-color="white"/>
<stop offset="0.875" stop-color="#FF00FF"/>
</linearGradient>
<linearGradient id="paint2_linear_103_4" x1="110.433" y1="4.33584" x2="142.52" y2="93.7054" gradientUnits="userSpaceOnUse">
<stop offset="0.278846" stop-color="white"/>
<stop offset="0.653846" stop-color="#FF00FF"/>
</linearGradient>
<linearGradient id="paint3_linear_103_4" x1="53.5526" y1="32" x2="237.997" y2="289.222" gradientUnits="userSpaceOnUse">
<stop offset="0.230769" stop-color="white"/>
<stop offset="0.572115" stop-color="#FF00FF"/>
</linearGradient>
</defs>
</svg>
