<svg width="151" height="150" viewBox="0 0 151 150" fill="none" xmlns="http://www.w3.org/2000/svg">
<mask id="mask0_5001_38" style="mask-type:luminance" maskUnits="userSpaceOnUse" x="1" y="1" width="149" height="148">
<path d="M1.69824 1.19824H149.299V148.799H1.69824V1.19824Z" fill="white"/>
</mask>
<g mask="url(#mask0_5001_38)">
<path fill-rule="evenodd" clip-rule="evenodd" d="M53.3604 15.961H12.7695C9.83399 15.961 7.01768 17.1271 4.9417 19.203C2.86575 21.2789 1.69971 24.0941 1.69971 27.0308V94.522C1.69856 96.812 2.40811 99.0457 3.72989 100.916C5.05168 102.787 6.92062 104.201 9.08009 104.965V137.73C9.08009 140.667 10.2463 143.482 12.3221 145.558C14.398 147.634 17.2132 148.8 20.1499 148.8H130.851C133.788 148.8 136.603 147.634 138.679 145.558C140.755 143.482 141.921 140.667 141.921 137.73V104.965C144.08 104.201 145.95 102.787 147.272 100.916C148.594 99.0458 149.302 96.8118 149.301 94.522V27.0308C149.301 24.0944 148.135 21.2789 146.059 19.203C143.983 17.127 141.168 15.961 138.232 15.961H97.6407V12.2701C97.6407 9.33459 96.4745 6.51828 94.3987 4.44231C92.3227 2.36636 89.5064 1.20032 86.5709 1.20032H64.43C61.4945 1.20032 58.6794 2.36648 56.6034 4.44231C54.5263 6.51825 53.3602 9.33459 53.3602 12.2701L53.3604 15.961ZM16.4609 106.33V137.73C16.4609 138.709 16.8489 139.647 17.5413 140.34C18.2336 141.032 19.172 141.42 20.1505 141.42H34.91V109.243L16.4597 106.328L16.4609 106.33ZM108.711 110.389L76.0918 115.592C75.6981 115.628 75.3033 115.628 74.9108 115.592L42.2916 110.388V141.422H108.711V110.388L108.711 110.389ZM134.541 106.33L116.091 109.245L116.09 141.422H130.851H130.849C131.828 141.422 132.768 141.034 133.459 140.341C134.151 139.649 134.54 138.711 134.54 137.732V106.332L134.541 106.33ZM82.8793 130.351H68.1198C66.0816 130.351 64.429 132.004 64.429 134.042C64.429 136.079 66.0815 137.732 68.1198 137.732H82.8805H82.8793C84.9175 137.732 86.5702 136.079 86.5702 134.042C86.5702 132.004 84.9176 130.351 82.8793 130.351ZM116.09 46.108L116.091 23.3411H34.9097V46.1092C37.0692 46.8725 38.9392 48.287 40.2611 50.1569C41.5829 52.0268 42.2913 54.2608 42.2902 56.5518V71.3124V71.3113C42.2913 73.6012 41.5829 75.8362 40.2611 77.7062C38.9393 79.5761 37.0692 80.9907 34.9097 81.7539V100.831C34.9464 101.138 34.9464 101.448 34.9097 101.753L75.5006 108.211L116.091 101.791C116.052 101.472 116.052 101.15 116.091 100.831V81.7539C113.932 80.9905 112.063 79.5761 110.741 77.7062C109.419 75.8363 108.71 73.6011 108.711 71.3113V56.5518C108.71 54.2607 109.419 52.0269 110.741 50.1569C112.063 48.2869 113.932 46.8724 116.091 46.1093L116.09 46.108ZM123.472 23.3411V46.1092C125.63 46.8725 127.5 48.287 128.822 50.1569C130.144 52.0268 130.852 54.2608 130.851 56.5518V71.3124V71.3113C130.852 73.6012 130.144 75.8362 128.822 77.7062C127.5 79.5761 125.63 80.9907 123.472 81.7539V100.572L138.822 98.1737V98.1749C140.626 97.8819 141.945 96.3129 141.921 94.484V27.0309C141.921 26.0525 141.533 25.1129 140.84 24.4217C140.148 23.7293 139.21 23.3402 138.231 23.3402L123.472 23.3411ZM27.5302 23.3411H12.7695C10.7314 23.3411 9.07988 24.9937 9.07988 27.032V94.5232C9.05585 96.3508 10.3742 97.921 12.1789 98.2128L27.5299 100.575V81.7551C25.3704 80.9918 23.5004 79.5773 22.1785 77.7075C20.8579 75.8375 20.1483 73.6024 20.1495 71.3126V56.5531C20.1483 54.262 20.8579 52.0282 22.1785 50.1582C23.5003 48.2882 25.3704 46.8737 27.5299 46.1105L27.5302 23.3411ZM93.9491 97.1429C94.9276 97.1429 95.866 96.7538 96.5584 96.0626C97.2496 95.3702 97.6387 94.4318 97.6387 93.4533V78.6927C97.6387 77.7142 97.2496 76.7758 96.5584 76.0834C95.866 75.3911 94.9276 75.0031 93.9491 75.0031H57.0497C55.0115 75.0031 53.3589 76.6545 53.3589 78.6928V93.4534C53.3589 94.4319 53.748 95.3703 54.4404 96.0627C55.1316 96.7539 56.0711 97.143 57.0496 97.143L93.9491 97.1429ZM90.2595 89.7627H60.737V82.3825H90.2565V89.7627H90.2595ZM31.2175 75.0032C29.1793 75.0032 27.5278 73.3507 27.5278 71.3124V56.5529C27.5278 54.5148 29.1792 52.8621 31.2175 52.8621C33.2558 52.8621 34.9071 54.5146 34.9071 56.5529V71.3136V71.3124C34.9071 72.2909 34.5192 73.2305 33.8268 73.9217C33.1344 74.6141 32.1959 75.0032 31.2175 75.0032ZM119.779 75.0032C117.741 75.0032 116.089 73.3507 116.089 71.3124V56.5529C116.089 54.5148 117.741 52.8621 119.779 52.8621C121.817 52.8621 123.47 54.5146 123.47 56.5529V71.3136V71.3124C123.47 72.2909 123.081 73.2305 122.388 73.9217C121.696 74.6141 120.757 75.0032 119.779 75.0032ZM90.2595 15.9642H60.7399V12.2734C60.7399 10.2352 62.3925 8.58371 64.4296 8.58371H86.5704C87.5489 8.58371 88.4873 8.97166 89.1797 9.66404C89.8709 10.3564 90.26 11.2948 90.26 12.2733L90.2595 15.9642Z" fill="black"/>
</g>
</svg>
