<svg width="95" height="46" viewBox="0 0 95 46" fill="none" xmlns="http://www.w3.org/2000/svg">
<rect width="95" height="46" fill="#D9D9D9"/>
<g clip-path="url(#clip0_133_24)">
<path d="M85.0761 19.4941L82.8742 27.7133L80.7041 19.5816L80.6803 19.4941H77.1907L74.9888 27.7133L72.8188 19.5816L72.7949 19.4941H69.5518L73.1208 31.4176L73.1447 31.505H76.7217L78.9474 23.3017L81.1254 31.4096L81.1493 31.505H84.7263L88.2715 19.6452L88.3192 19.4941H85.0761Z" fill="#1A1A1A"/>
<path d="M68.2474 20.8856C67.1107 19.733 65.5448 19.1289 63.7245 19.1289C61.9042 19.1289 60.3541 19.733 59.2174 20.8856C58.0807 22.0382 57.4766 23.636 57.4766 25.496C57.4766 27.3561 58.0807 28.9459 59.2174 30.1064C60.3541 31.259 61.9042 31.8631 63.7245 31.8631C65.5448 31.8631 67.1107 31.259 68.2474 30.1064C69.3841 28.9538 69.9883 27.3561 69.9883 25.496C69.9883 23.636 69.3841 22.0382 68.2474 20.8856ZM66.7848 25.496C66.7848 26.5294 66.4907 27.4197 65.9343 28.0476C65.3858 28.6756 64.6148 29.0095 63.7165 29.0095C62.8183 29.0095 62.0552 28.6756 61.5147 28.0476C60.9662 27.4117 60.68 26.5294 60.68 25.4881C60.68 24.4468 60.9662 23.5644 61.5147 22.9285C62.0632 22.3005 62.8263 21.9667 63.7165 21.9667C64.6068 21.9667 65.3779 22.3005 65.9343 22.9285C66.4907 23.5644 66.7848 24.4468 66.7848 25.4881V25.496Z" fill="#1A1A1A"/>
<path d="M55.6567 28.7307C55.4024 28.7307 55.2275 28.683 55.1241 28.5796C55.0208 28.4763 54.9811 28.3094 54.9811 28.055V14.3828H51.873V29.0407C51.873 29.923 52.0876 30.5351 52.5169 30.9325C52.9461 31.322 53.5821 31.4969 54.52 31.4969H57.1511V28.7227H55.6567V28.7307Z" fill="#1A1A1A"/>
<path d="M49.9259 17.3955V14.3828H39.3379V31.4969H42.5493V24.2633H49.9259V21.2586H42.5493V17.3955H49.9259Z" fill="#1A1A1A"/>
<path d="M8.62158 11.2432C8.19234 11.2432 7.779 11.4101 7.47694 11.7122C7.16693 12.0142 7 12.4276 7 12.8489V31.9263C7 32.1409 7.03974 32.3476 7.11923 32.5463C7.19872 32.7451 7.31796 32.9199 7.46899 33.071C7.62002 33.222 7.79489 33.3412 7.99362 33.4207C8.19234 33.5002 8.39901 33.5399 8.61364 33.5399C9.04288 33.5399 9.45622 33.373 9.75828 33.071C10.0603 32.7689 10.2352 32.3635 10.2352 31.9343V12.8489C10.2352 12.4196 10.0683 12.0142 9.75828 11.7122C9.45622 11.4101 9.04288 11.2432 8.61364 11.2432H8.62158Z" fill="#1A1A1A"/>
<path d="M18.3501 14.8916C18.1355 14.8916 17.9289 14.9314 17.7301 15.0108C17.5314 15.0903 17.3565 15.2096 17.2055 15.3606C17.0545 15.5116 16.9352 15.6865 16.8557 15.8852C16.7762 16.0839 16.7285 16.2906 16.7285 16.4973V28.1266C16.7285 28.5558 16.8954 28.9612 17.2055 29.2633C17.5076 29.5653 17.9209 29.7323 18.3501 29.7323C18.7794 29.7323 19.1927 29.5653 19.4948 29.2633C19.7969 28.9612 19.9717 28.5558 19.9717 28.1266V16.4973C19.9717 16.0681 19.8048 15.6627 19.4948 15.3606C19.1927 15.0585 18.7794 14.8916 18.3501 14.8916Z" fill="#1A1A1A"/>
<path d="M13.4868 21.457C13.0576 21.457 12.6442 21.6239 12.3422 21.926C12.0401 22.2281 11.8652 22.6335 11.8652 23.0627V29.6921C11.8652 30.1214 12.0322 30.5268 12.3422 30.8288C12.6442 31.1309 13.0576 31.2978 13.4868 31.2978C13.9161 31.2978 14.3294 31.1309 14.6315 30.8288C14.9335 30.5268 15.1084 30.1214 15.1084 29.6921V23.0627C15.1084 22.6335 14.9415 22.2281 14.6315 21.926C14.3294 21.6239 13.9161 21.457 13.4868 21.457Z" fill="#1A1A1A"/>
<path d="M28.0806 11.2432C27.8659 11.2432 27.6593 11.2829 27.4606 11.3624C27.2618 11.4419 27.087 11.5611 26.9359 11.7122C26.7849 11.8632 26.6657 12.0381 26.5862 12.2368C26.5067 12.4355 26.459 12.6422 26.459 12.8489V31.9263C26.459 32.3556 26.6259 32.761 26.9359 33.063C27.238 33.3651 27.6513 33.532 28.0806 33.532C28.5098 33.532 28.9232 33.3651 29.2252 33.063C29.5273 32.761 29.7022 32.3556 29.7022 31.9263V12.8489C29.7022 12.4196 29.5352 12.0142 29.2252 11.7122C28.9232 11.4101 28.5098 11.2432 28.0806 11.2432Z" fill="#1A1A1A"/>
<path d="M23.2154 21.457C22.7861 21.457 22.3728 21.6239 22.0707 21.926C21.7686 22.2281 21.5938 22.6335 21.5938 23.0627V29.6921C21.5938 30.1214 21.7607 30.5268 22.0707 30.8288C22.3728 31.1309 22.7861 31.2978 23.2154 31.2978C23.6446 31.2978 24.0579 31.1309 24.36 30.8288C24.6621 30.5268 24.8369 30.1214 24.8369 29.6921V23.0627C24.8369 22.6335 24.67 22.2281 24.36 21.926C24.0579 21.6239 23.6446 21.457 23.2154 21.457Z" fill="#1A1A1A"/>
</g>
<defs>
<clipPath id="clip0_133_24">
<rect width="82" height="23" fill="white" transform="translate(7 11)"/>
</clipPath>
</defs>
</svg>
